<svg id="图层_1" data-name="图层 1" xmlns="http://www.w3.org/2000/svg" viewBox="0 0 242.2 184.19"><defs><style>.cls-1,.cls-2{fill:none;stroke-linecap:round;stroke-miterlimit:10;}.cls-1{stroke:#28b9d2;stroke-width:2px;}.cls-2{stroke:#104454;stroke-width:0.5px;}.cls-3,.cls-4,.cls-5{fill:#28b9d2;}.cls-4{opacity:0.54;}.cls-5{opacity:0.13;}</style></defs><title>未标题-1</title><line class="cls-1" x1="9.93" y1="1" x2="37.51" y2="1"/><line class="cls-1" x1="56.72" y1="1" x2="196.71" y2="1"/><line class="cls-2" x1="1.54" y1="183.94" x2="238.71" y2="183.94"/><line class="cls-2" x1="238.55" y1="36.23" x2="238.55" y2="170.79"/><line class="cls-1" x1="223.87" y1="17.99" x2="236.82" y2="17.99"/><line class="cls-1" x1="238.77" y1="36.23" x2="238.77" y2="23.28"/><line class="cls-1" x1="236.82" y1="17.96" x2="238.77" y2="23.31"/><line class="cls-1" x1="1.54" y1="17.99" x2="9.93" y2="1"/><line class="cls-1" x1="199.55" y1="19.73" x2="196.71" y2="1"/><polygon class="cls-3" points="207.11 10.37 201.17 10.37 199.55 1 205.49 1 207.11 10.37"/><polygon class="cls-3" points="161.28 24.28 157.08 24.28 151.57 18.45 155.97 18.45 161.28 24.28"/><polygon class="cls-4" points="169.51 24.28 165.3 24.28 159.79 18.45 164.19 18.45 169.51 24.28"/><polygon class="cls-5" points="177.42 24.28 173.22 24.28 167.71 18.45 172.1 18.45 177.42 24.28"/><circle class="cls-3" cx="213.7" cy="24.86" r="3.49"/><circle class="cls-3" cx="238.71" cy="174.28" r="3.49"/><polygon class="cls-3" points="5.74 0.2 2.87 5.83 0 11.47 0 0.2 5.74 0.2"/></svg>